<svg width="134" height="142" viewBox="0 0 134 142" fill="none" xmlns="http://www.w3.org/2000/svg">
<g clip-path="url(#clip0_2_22)">
<path d="M82.4317 58.028C82.2462 58.0987 82.0624 58.1713 81.8749 58.2403C81.6701 58.3163 81.4632 58.3925 81.2581 58.4685C80.6428 58.6986 80.0296 58.9323 79.4235 59.1782H79.4219C78.4833 59.6013 77.543 60.0296 76.6081 60.4737C74.0664 61.6824 71.5726 63.0098 69.3048 64.6699C68.9052 64.9602 68.5146 65.2629 68.1311 65.5762C69.5894 67.3848 71.4469 68.8115 73.1366 70.4042C73.5628 70.0998 73.9938 69.8023 74.4305 69.5124C84.3089 62.904 96.3489 59.6953 108.195 60.0368C112.59 60.1075 116.924 61.141 120.967 62.858C119.466 69.2628 114.616 74.2269 109.128 77.5155C100.849 82.4622 91.4494 85.0407 82.0253 86.8175C81.108 86.991 80.1908 87.1554 79.2751 87.3148C79.2751 87.3342 79.2788 87.3681 79.2804 87.3927C79.2856 87.4864 79.2929 87.5873 79.2998 87.6846C79.3014 87.7182 79.305 87.7606 79.3067 87.7856V87.7872C80.1356 88.3197 80.9839 88.8191 81.8411 89.302V89.3036C84.3086 90.7 86.8467 91.9847 89.1585 93.6484C95.6575 97.9366 101.983 103.823 103.395 111.849C93.5081 112.436 84.6602 106.233 79.066 98.4816C78.8733 98.2144 78.6842 97.9471 78.5004 97.6763C78.5552 98.1312 78.631 98.5806 78.7229 99.0267C79.6261 103.363 82.2262 107.24 85.4005 110.274C91.9756 116.232 101.286 118.254 109.94 117.801C109.986 111.003 107.781 104.037 103.06 99.0461C97.5646 93.0218 89.8105 89.583 81.9577 87.8644C81.804 87.8309 81.652 87.7971 81.498 87.7655C81.6537 87.753 81.8109 87.7409 81.9665 87.732C86.4419 87.4046 90.9487 87.3973 95.3745 86.6169C103.312 85.2665 111.102 82.3553 117.523 77.4106C123.02 73.248 127.73 67.8237 130.754 61.5887C131.355 60.3518 131.891 59.0809 132.35 57.7818C132.47 57.4438 132.585 57.1039 132.695 56.7624C132.487 56.7022 132.278 56.6421 132.068 56.5855C131.217 56.3466 130.364 56.1217 129.507 55.9093C115.201 52.3805 99.9244 52.5751 85.8266 56.8932V56.8949C84.7731 57.217 83.7252 57.5622 82.6858 57.932H82.6842C82.5995 57.9622 82.5164 57.9958 82.4314 58.0277L82.4317 58.028Z" fill="#8CC63F"/>
<path d="M74.8579 108.104C73.2841 104.243 69.3836 102.182 66.2953 99.6848C63.6443 97.8511 61.1834 95.2874 60.8196 91.9301C60.2989 86.2616 62.6893 80.6059 66.4299 76.435C64.9269 74.8462 63.3928 73.2647 61.5556 72.0646C60.6683 72.8354 59.8869 73.6234 59.2021 74.4212C55.7517 78.4346 54.7028 82.6959 54.5938 86.1692C54.5783 86.6383 54.581 87.0933 54.5967 87.5324C54.7169 90.8302 55.603 93.1698 55.7192 93.459C55.7205 93.4646 55.7221 93.4676 55.7234 93.4719V93.4732C55.7264 93.4804 55.729 93.486 55.729 93.4886C56.557 96.218 58.0544 98.739 60.2408 100.588C63.619 103.454 67.7588 105.565 70.377 109.246C71.6409 111.829 69.1258 114.075 67.6173 115.871C68.5077 116.715 69.3878 117.574 70.2851 118.427C73.1751 115.895 75.8188 112.144 74.8579 108.103V108.104Z" fill="#8CC63F"/>
<path d="M65.4243 88.1787C65.5986 91.6083 65.6761 95.0428 65.7985 98.4774C66.5973 98.7229 67.7329 99.6148 68.1767 98.3676C68.4945 94.9718 68.3898 91.5505 68.6367 88.1544C70.137 86.9979 71.176 84.8734 70.008 83.1111C68.6866 80.6588 64.6823 81.0013 63.7739 83.6278C62.988 85.3905 64.1465 87.0624 65.4243 88.1787Z" fill="#006837"/>
<path d="M74.0267 125.543C72.6908 119.584 66.2421 117.091 63.6318 111.939C62.5234 109.563 64.9594 107.82 66.334 106.271C65.0884 105.353 63.8383 104.45 62.5684 103.578C61.0405 105.276 59.2076 107.045 59.0399 109.466C58.9641 113.217 61.4647 116.348 64.0947 118.737C66.3662 120.946 69.3123 122.715 70.5254 125.789C71.8468 129.275 69.7575 132.942 67.4551 135.478C67.2552 131.049 67.7457 126.608 67.397 122.185C67.1968 122.34 66.7903 122.65 66.5904 122.805C66.3773 127.002 66.6951 131.223 66.6357 135.427V135.427C66.6423 135.531 66.6485 135.731 66.6551 135.828C66.8888 137.868 66.3067 140.07 67.1728 142C67.3648 139.973 67.3195 137.933 67.3648 135.899C71.6596 134.627 75.2381 130.159 74.0263 125.543H74.0267Z" fill="#006837"/>
<path d="M67.9256 107.574C67.7063 107.33 67.2752 106.832 67.0559 106.587L66.3008 106.832C65.7861 109.155 66.204 111.596 66.2555 113.966C66.2555 114.832 66.7266 115.322 67.6754 115.438C67.8868 112.823 68.048 110.196 67.9256 107.574Z" fill="#006837"/>
<path d="M66.636 135.427C64.7404 133.219 62.8642 130.547 63.1288 127.479C63.29 125.13 65.0566 123.379 66.4765 121.675C65.573 120.92 64.6584 120.19 63.7549 119.447C61.6784 121.623 59.7956 124.336 59.9312 127.486C59.8537 131.431 63.032 134.736 66.6554 135.828C66.6488 135.731 66.6426 135.531 66.636 135.427Z" fill="#8CC63F"/>
<path d="M23.5145 120.595C22.7933 119.939 22.0865 119.266 21.3954 118.576C9.60624 106.835 2.29769 90.5866 2.29769 72.6622C2.29769 70.3509 2.41949 68.066 2.65652 65.8168C1.98318 64.6929 1.35581 63.5427 0.781286 62.3691C0.261592 65.7514 -6.10352e-05 69.1862 -6.10352e-05 72.6622C-6.10352e-05 81.7183 1.7711 90.5051 5.26517 98.7755C8.6394 106.764 13.47 113.939 19.6242 120.1C25.7768 126.262 32.9422 131.099 40.9205 134.477C48.2734 137.592 56.036 139.339 64.0339 139.684C64.0146 139.102 64.0303 138.539 64.0464 137.999C64.05 137.881 64.0536 137.762 64.0553 137.645C64.0569 137.555 64.0605 137.469 64.0605 137.382C63.8714 137.375 63.6823 137.366 63.4932 137.353C48.1463 136.531 34.2026 130.326 23.5145 120.595Z" fill="#8CC63F"/>
<path d="M133.243 62.5213C132.678 63.7034 132.05 64.8681 131.364 66.0114V66.0131C131.587 68.1988 131.702 70.418 131.702 72.6622C131.702 90.5955 124.386 106.851 112.586 118.593C111.963 119.216 111.324 119.825 110.674 120.421C100.005 130.212 86.0568 136.473 70.6938 137.342C70.6373 137.346 70.5825 137.35 70.526 137.351C70.3474 137.364 70.1688 137.373 69.9906 137.379C69.9853 138.061 69.9765 139.098 69.9587 139.684C77.9584 139.341 85.7229 137.594 93.0791 134.477C101.057 131.098 108.223 126.262 114.375 120.099C120.53 113.939 125.36 106.764 128.734 98.7752C132.229 90.5051 134 81.7179 134 72.6619C134 69.2392 133.747 65.8536 133.243 62.521V62.5213Z" fill="#006837"/>
<path d="M128.648 52.9788C129.523 53.177 130.396 53.391 131.265 53.6178C130.556 51.2234 129.713 48.8661 128.734 46.5476C125.36 38.5589 120.529 31.3857 114.375 25.2235C108.222 19.0628 101.057 14.2259 93.0787 10.8473C87.4865 8.4775 81.6556 6.90061 75.6655 6.12909C76.2965 6.98377 76.9045 7.85095 77.4912 8.72898C101.644 12.6882 121.342 30.087 128.647 52.9791L128.648 52.9788Z" fill="#006837"/>
<path d="M5.33771 53.0195C12.6128 30.1731 32.2265 12.7904 56.2976 8.76218C56.8863 7.88087 57.4979 7.01172 58.1305 6.15539C52.2113 6.93578 46.451 8.5038 40.9205 10.847C32.9422 14.2256 25.7768 19.0625 19.6242 25.2231C13.47 31.3854 8.6394 38.5585 5.26516 46.5472C4.27896 48.8835 3.42867 51.2602 2.71823 53.6743C3.58789 53.4426 4.46083 53.223 5.33771 53.0212V53.0195Z" fill="#8CC63F"/>
<path d="M3.27342 61.4346V61.4362C7.4093 69.7523 14.1771 76.7325 22.3586 81.118C30.2752 85.4026 39.3034 87.2944 48.254 87.4946C49.3483 87.47 50.5075 87.6468 51.6069 87.5265C49.3693 88.2839 47.2307 89.0502 45.2547 89.8342C43.4606 90.5423 41.8027 91.2661 40.3198 92.0074C40.304 92.0146 40.2896 92.0215 40.2754 92.0288C40.263 92.034 40.2525 92.0393 40.242 92.0445V92.0462C35.915 94.292 32.0001 97.315 29.1173 101.279C25.5681 106.056 24.0678 112.061 24.0481 117.944C31.1993 117.988 38.6386 116.942 44.8302 113.116C49.9914 110.006 53.8161 104.852 55.3981 99.0438C55.559 98.4544 55.6969 97.8581 55.8098 97.2562C55.5518 97.6473 55.2849 98.0349 55.0091 98.4172C49.4202 106.215 40.5916 112.271 30.7167 111.951C31.2292 107.845 33.3254 104.118 36.0581 101.079C38.2958 98.5783 40.8464 96.4366 43.5683 94.5235C43.9836 94.2315 44.4044 93.9429 44.8266 93.6615C46.5551 92.3874 49.7649 90.0475 51.9989 88.5699C53.1089 87.8372 53.9766 87.3152 54.3055 87.2425L53.8072 87.0515C53.5649 86.9595 53.3157 86.8957 53.0597 86.8586C52.6851 86.8037 52.3085 86.7471 51.9339 86.687C43.3651 85.3366 34.9255 82.7916 27.2158 78.7847C20.8954 75.4202 14.815 70.2119 13.2083 62.9079C20.1741 59.5894 28.1738 59.5894 35.6747 60.5523C44.3125 61.8018 52.9306 64.7803 60.1243 69.7941C62.7454 71.6221 65.1758 73.7214 67.3514 76.1033C67.855 76.6342 68.336 77.1934 68.79 77.7759C69.2319 78.3403 69.6472 78.9261 70.0343 79.5316C71.3882 81.6446 72.401 83.9878 72.9328 86.425V86.4266C73.3376 88.2671 73.4666 90.1609 73.265 92.0528C73.0654 93.9587 72.1534 95.5695 70.9407 96.9603C70.9407 96.9614 70.9401 96.9626 70.939 96.9639C70.423 97.555 69.8573 98.1036 69.2654 98.6204C68.7792 99.0434 68.2792 99.4451 67.7789 99.8274C68.3304 100.217 68.8819 100.605 69.4331 100.994C70.1455 101.495 70.8576 101.997 71.5684 102.498C72.0208 102.14 72.4752 101.781 72.9187 101.41C74.0145 100.502 75.0608 99.5299 75.9216 98.3939C76.0083 98.2772 76.0949 98.1585 76.1796 98.0382C76.2309 97.9675 76.2804 97.8965 76.33 97.8258C77.7988 95.7144 78.5818 93.2404 78.9882 90.7096C79.1438 89.7379 79.2446 88.7576 79.3064 87.7859V87.7843C79.3047 87.7596 79.3011 87.7169 79.2995 87.6833C79.2922 87.586 79.2853 87.4851 79.2801 87.3914C79.2784 87.3668 79.2748 87.3329 79.2748 87.3135V87.3119C79.2502 86.4217 79.1724 85.5368 79.0414 84.6591C78.8205 83.167 78.4511 81.6999 77.9492 80.2788C77.1485 78.0241 76.0155 75.886 74.6051 73.9502C74.3931 73.6563 74.1757 73.368 73.9512 73.083C71.4236 69.8246 68.3465 67.0709 64.9581 64.7419C61.6725 62.4835 58.0967 60.6236 54.4434 59.0927C53.3088 49.7908 53.6109 40.239 55.9316 31.1372C57.8548 23.9891 60.8771 16.5914 66.9253 11.9738C71.2325 15.2161 73.9794 20.0335 75.9272 24.9641C79.7466 34.8801 80.5864 45.6847 79.7115 56.2151C79.6301 57.2062 79.5329 58.1937 79.4216 59.1775H79.4232C80.0296 58.928 80.6428 58.6963 81.2577 58.4678C81.4629 58.3919 81.6694 58.3156 81.8746 58.2397C82.0621 58.1707 82.2459 58.098 82.4314 58.0273C82.5161 57.9954 82.5992 57.9619 82.6842 57.9317H82.6858C83.0535 56.8945 83.3874 55.8469 83.6845 54.7884C84.1441 53.1602 84.5187 51.5071 84.8086 49.8417C85.284 47.0933 85.5263 44.3057 85.5263 41.5167C85.5263 38.5313 85.2489 35.5454 84.6832 32.6076C82.9971 23.803 79.1845 15.5007 73.9387 8.24641C73.3307 7.40389 72.7013 6.57583 72.0562 5.76355C70.4532 3.74583 68.7368 1.82048 66.9253 -0.00066185C65.1029 1.82212 63.3797 3.75141 61.773 5.77406C61.1243 6.58996 60.4933 7.41999 59.8853 8.26581H59.8836C55.2986 14.6142 51.8223 21.7692 49.8657 29.3546C47.4264 38.69 47.8844 48.7053 51.0905 57.7949C36.1819 52.627 19.7638 52.1122 4.47859 55.958V55.9596C3.62141 56.1736 2.76751 56.4038 1.91755 56.648C1.71236 56.7045 1.50751 56.7647 1.30429 56.8249C1.41755 57.1381 1.5341 57.4494 1.65426 57.7611C2.13685 59.0105 2.67756 60.2354 3.27342 61.4333V61.4346Z" fill="#006837"/>
</g>
<defs>
<clipPath id="clip0_2_22">
<rect width="134" height="142" fill="white"/>
</clipPath>
</defs>
</svg>
