<svg width="16" height="17" viewBox="0 0 16 17" fill="none" xmlns="http://www.w3.org/2000/svg">
<path d="M10.9846 8.852C12.352 8.852 13.4663 7.634 13.4663 6.152C13.4663 4.68686 12.3577 3.52629 10.9846 3.52629C9.62286 3.52629 8.50257 4.704 8.50257 6.16343C8.50829 7.63971 9.62286 8.852 10.9846 8.852ZM4.36629 8.97828C5.54971 8.97828 6.52057 7.91543 6.52057 6.61143C6.52057 5.336 5.56114 4.30771 4.36629 4.30771C3.18286 4.30771 2.20629 5.35343 2.212 6.62286C2.21771 7.92143 3.18286 8.97828 4.36629 8.97828ZM10.9846 7.98457C10.1457 7.98457 9.42743 7.18029 9.42743 6.16343C9.42743 5.16343 10.1343 4.394 10.9846 4.394C11.8406 4.394 12.5414 5.15229 12.5414 6.15171C12.5414 7.16886 11.8349 7.98457 10.9846 7.98457ZM4.36629 8.12228C3.66543 8.12228 3.068 7.45028 3.068 6.62286C3.068 5.81286 3.65943 5.16371 4.36629 5.16371C5.09 5.16371 5.67029 5.80143 5.67029 6.61143C5.67029 7.45028 5.07286 8.12228 4.36629 8.12228ZM1.172 14.2466H5.682C5.406 14.0914 5.19343 13.7466 5.23371 13.3963H1.02857C0.913714 13.3963 0.856286 13.3506 0.856286 13.2411C0.856286 11.8166 2.482 10.4837 4.36086 10.4837C5.08457 10.4837 5.73371 10.656 6.29114 10.9834C6.47593 10.7492 6.69474 10.544 6.94029 10.3746C6.19914 9.886 5.30886 9.63343 4.36086 9.63343C1.95343 9.63343 0 11.3797 0 13.2929C0 13.9306 0.390572 14.2466 1.172 14.2466ZM7.37657 14.2466H14.5926C15.546 14.2466 16 13.9594 16 13.3274C16 11.8223 14.0983 9.64457 10.9846 9.64457C7.86486 9.64457 5.96343 11.8223 5.96343 13.3274C5.96343 13.9594 6.41714 14.2466 7.37657 14.2466ZM7.10086 13.3791C6.95143 13.3791 6.88829 13.3391 6.88829 13.2183C6.88829 12.276 8.34743 10.5126 10.9846 10.5126C13.616 10.5126 15.0749 12.276 15.0749 13.2183C15.0749 13.3389 15.0177 13.3791 14.868 13.3791H7.10086Z" fill="#F24E1E"/>
</svg>
