<svg width="24" height="24" viewBox="0 0 24 24" fill="none" xmlns="http://www.w3.org/2000/svg">
<path d="M23.2855 20.6456C22.5355 19.9769 21.8789 19.2104 21.3333 18.3667C20.7377 17.202 20.3807 15.9301 20.2833 14.6256V10.7833C20.2885 8.73436 19.5452 6.75403 18.1932 5.21442C17.0357 3.8963 15.5002 2.97889 13.807 2.57926C13.3171 2.46365 12.9411 2.04514 12.9411 1.54185V1.41889C12.9411 1.1435 12.8317 0.8794 12.637 0.684675C12.4422 0.48995 12.1781 0.380554 11.9027 0.380554C11.6274 0.380554 11.3633 0.48995 11.1685 0.684675C10.9738 0.8794 10.8644 1.1435 10.8644 1.41889V1.56648C10.8644 2.06586 10.4939 2.48236 10.009 2.60153C8.33129 3.01379 6.81365 3.93521 5.67083 5.24953C4.33659 6.78397 3.60365 8.74994 3.60775 10.7833V14.6256C3.51033 15.9301 3.15335 17.202 2.55775 18.3667C2.02177 19.2085 1.37568 19.9749 0.636637 20.6456C0.553672 20.7184 0.48718 20.8082 0.441584 20.9087C0.395987 21.0093 0.372332 21.1185 0.372192 21.2289V22.2867C0.372192 22.4929 0.454137 22.6908 0.599998 22.8366C0.74586 22.9825 0.943691 23.0644 1.14997 23.0644H22.7722C22.9785 23.0644 23.1763 22.9825 23.3222 22.8366C23.468 22.6908 23.55 22.4929 23.55 22.2867V21.2289C23.5498 21.1185 23.5262 21.0093 23.4806 20.9087C23.435 20.8082 23.3685 20.7184 23.2855 20.6456ZM4.46444 21.5089C3.56518 21.5089 3.07746 20.3654 3.58962 19.6262C3.69215 19.4782 3.79156 19.328 3.88775 19.1756C4.638 17.7689 5.07575 16.2169 5.17108 14.6256V10.7833C5.14023 9.8718 5.29313 8.96339 5.62067 8.11218C5.94821 7.26098 6.44369 6.48439 7.07761 5.82866C7.71152 5.17292 8.47091 4.65146 9.31055 4.29532C10.1502 3.93918 11.0529 3.75565 11.965 3.75565C12.877 3.75565 13.7797 3.93918 14.6194 4.29532C15.459 4.65146 16.2184 5.17292 16.8523 5.82866C17.4862 6.48439 17.9817 7.26098 18.3093 8.11218C18.6368 8.96339 18.7897 9.8718 18.7589 10.7833V14.6256C18.8542 16.2169 19.2919 17.7689 20.0422 19.1756C20.1384 19.328 20.2378 19.4782 20.3403 19.6262C20.8525 20.3654 20.3648 21.5089 19.4655 21.5089H4.46444Z" fill="#3A3939"/>
</svg>
